# xmcd CD database file
#
# Track frame offsets:
#	150
#	21456
#	41318
#	60664
#	93391
#	127658
#	144875
#	166066
#	192259
#	208314
#	228177
#	247202
#
# Disc length: 3625 seconds
#
# Revision: 0
# Processed by: cddbd v1.5.2PL0 Copyright (c) Steve Scherf et al.
# Submitted via: CDex 1.70beta2
#
DISCID=9d0e270c
DTITLE=Paul Camilleri - One Step Closer
DYEAR=2011
DGENRE=Blues
TTITLE0=One Step Closer
TTITLE1=Dance With Me
TTITLE2=Fire In My Heart
TTITLE3=On My Own
TTITLE4=Light Of My Life
TTITLE5=Thunderstorm
TTITLE6=Livin' On The Fast Lane
TTITLE7=Always On The Run
TTITLE8=Love Is Understood
TTITLE9=Put It Away
TTITLE10=Rock Me
TTITLE11=Movin' On
EXTD=YEAR: 2011
EXTT0=
EXTT1=
EXTT2=
EXTT3=
EXTT4=
EXTT5=
EXTT6=
EXTT7=
EXTT8=
EXTT9=
EXTT10=
EXTT11=
PLAYORDER=
